<?xml version="1.0" encoding="UTF-8" standalone="no"?>
<!-- Created with Inkscape (http://www.inkscape.org/) -->

<svg
   xmlns:dc="http://purl.org/dc/elements/1.1/"
   xmlns:cc="http://creativecommons.org/ns#"
   xmlns:rdf="http://www.w3.org/1999/02/22-rdf-syntax-ns#"
   xmlns:svg="http://www.w3.org/2000/svg"
   xmlns="http://www.w3.org/2000/svg"
   version="1.1"
   width="9"
   height="9"
   id="svg5188">
  <defs
     id="defs5190" />
  <metadata
     id="metadata5193">
    <rdf:RDF>
      <cc:Work
         rdf:about="">
        <dc:format>image/svg+xml</dc:format>
        <dc:type
           rdf:resource="http://purl.org/dc/dcmitype/StillImage" />
        <dc:title></dc:title>
      </cc:Work>
    </rdf:RDF>
  </metadata>
  <g
     transform="translate(0,-1043.3622)"
     id="layer1">
    <path
       d="M 1,0 3,0 3,1 4,1 4,2 5,2 5,1 6,1 6,0 8,0 8,1 9,1 9,4 8,4 8,8 7,8 7,9 2,9 2,8 1,8 1,4 0,4 0,1 1,1 z"
       transform="translate(0,1043.3622)"
       id="path5221"
       style="fill:#000000;fill-opacity:1;stroke:none" />
    <path
       d="M 1,1 3,1 3,2 4,2 4,3 5,3 5,2 6,2 6,1 8,1 8,4 7,4 7,8 2,8 2,4 1,4 z"
       transform="translate(0,1043.3622)"
       id="path5773"
       style="fill:#3d3d3d;fill-opacity:1;stroke:none" />
  </g>
</svg>
