<?xml version="1.0" encoding="UTF-8" standalone="no"?>
<!-- Created with Inkscape (http://www.inkscape.org/) -->

<svg
   xmlns:dc="http://purl.org/dc/elements/1.1/"
   xmlns:cc="http://creativecommons.org/ns#"
   xmlns:rdf="http://www.w3.org/1999/02/22-rdf-syntax-ns#"
   xmlns:svg="http://www.w3.org/2000/svg"
   xmlns="http://www.w3.org/2000/svg"
   version="1.1"
   width="9"
   height="9"
   id="svg2">
  <defs
     id="defs4" />
  <metadata
     id="metadata7">
    <rdf:RDF>
      <cc:Work
         rdf:about="">
        <dc:format>image/svg+xml</dc:format>
        <dc:type
           rdf:resource="http://purl.org/dc/dcmitype/StillImage" />
        <dc:title></dc:title>
      </cc:Work>
    </rdf:RDF>
  </metadata>
  <g
     transform="translate(-595,-767.36218)"
     id="layer1">
    <path
       d="m 597,767.36218 2,0 0,1 1,0 0,-1 2,0 0,1 1,0 0,1 1,0 0,3 -1,0 0,1 -1,0 0,1 -1,0 0,1 -1,0 0,1 -1,0 0,-1 -1,0 0,-1 -1,0 0,-1 -1,0 0,-1 -1,0 0,-3 1,0 0,-1 1,0 z"
       id="path4139"
       style="fill:#000000;fill-opacity:1;stroke:none" />
    <path
       d="M 2,1 4,1 4,2 5,2 5,1 7,1 7,2 8,2 8,5 7,5 7,6 2,6 2,5 1,5 1,2 2,2 z"
       transform="translate(595,767.36218)"
       id="path3769"
       style="fill:#da662c;fill-opacity:1;stroke:none" />
    <path
       d="M 6,1 6,2 5,2 5,1 z"
       transform="translate(595,767.36218)"
       id="path3771"
       style="fill:#ef7e4a;fill-opacity:1;stroke:none" />
    <path
       d="M 4,5 3,5 3,4 4,4 z"
       transform="translate(595,767.36218)"
       id="path3797"
       style="fill:none;stroke:none" />
    <path
       d="M 3,5 3,7 6,7 6,5 z"
       transform="translate(595,767.36218)"
       id="path3815"
       style="fill:#c1c1c1;fill-opacity:1;stroke:none" />
    <path
       d="M 3,2 3,4 4,4 4,2 z"
       transform="translate(595,767.36218)"
       id="path3805"
       style="fill:#7f3919;fill-opacity:1;stroke:none" />
    <path
       d="M 5,4 6,4 6,2 5,2 z"
       transform="translate(595,767.36218)"
       id="path3807"
       style="fill:#7f3919;fill-opacity:1;stroke:none" />
    <path
       d="M 5,6 5,5 6,5 6,6 4,6 4,7 5,7 z"
       transform="translate(595,767.36218)"
       id="path3821"
       style="fill:#8f8f8f;fill-opacity:1;stroke:none" />
    <path
       d="M 2,5 1,5 1,4 2,4 2,6 3,6 3,5 z"
       transform="translate(595,767.36218)"
       id="path3823"
       style="fill:#7f3919;fill-opacity:1;stroke:none" />
    <path
       d="M 7,5 7,6 6,6 6,5 8,5 8,4 7,4 z"
       transform="translate(595,767.36218)"
       id="path3825"
       style="fill:#7f3919;fill-opacity:1;stroke:none" />
    <path
       d="M 5,6 5,7 6,7 6,6 z"
       transform="translate(595,767.36218)"
       id="path3827"
       style="fill:#797979;fill-opacity:1;stroke:none" />
    <path
       d="M 4,5 4,4 3,4 3,5 6,5 6,4 5,4 5,6 4,6 z"
       transform="translate(595,767.36218)"
       id="path3829"
       style="fill:#000000;fill-opacity:1;stroke:none" />
    <path
       d="M 2,2 2,1 4,1 4,2 1,2 1,4 2,4 z"
       transform="translate(595,767.36218)"
       id="path3831"
       style="fill:#ef7e4a;fill-opacity:1;stroke:none" />
  </g>
  <g
     id="layer3" />
</svg>
