<svg xmlns="http://www.w3.org/2000/svg" width="9" height="9"><path d="M2 0h2v1h1v1h1v1h1v3h2v2H8v1H6V7H3V6H2V5H1V4H0V2h1V1h1V0"/><path d="M2 1h2v1h1v1h1v3H3V5H2V4H1V2h1z"/><path d="M6 6v1h1V6H6" fill="#e2c945"/><path d="M3 1v1h1v1h2v3H4V5H3V3H2V2h1z" fill="#7b512d"/><path d="M7 7h1v1H7z" fill="#ffeb7e"/><path d="M3 4h2.1133475v1H3z" fill="#2d0202"/><path d="M5 4h1v1H5z" fill="#5f6d43"/><path d="M3 3h1v1H3z" fill="#e2c945"/><path d="M4 2h1v1H4z" fill="#2d0202"/><path d="M5 3h1v1H5z" fill="#748458"/><path d="M2 2h1v1H2z" fill="#dfb67d"/><path d="M3 2h1v1H3z" fill="#5f0d0d"/><path d="M3 1h1v1H3z" fill="#2d0202"/><path d="M2 1h1v1H2v1h1v2h1v1H3V5H2V4H1V2h1z" fill="#282828"/><path d="M4 3h1v1H4z" fill="#5f0d0d"/><path d="M4 5h1v1H4z" fill="#403c1b"/></svg>