<svg xmlns="http://www.w3.org/2000/svg" width="9" height="9"><path d="M2 0h2v1h1v1h1v1h1v3h2v2H8v1H6V7H3V6H2V5H1V4H0V2h1V1h1V0"/><path d="M2 1h2v1h1v1h1v3H3V5H2V4H1V2h1z"/><path d="M6 6v1h1V6H6" fill="#e2c945"/><path d="M7 7h1v1H7z" fill="#ffeb7e"/><path d="M2 1l1 1h2v1h1v3H3V5H2V3L1 2h1z" fill="#946e32"/><path d="M3 5h1v1H3z" fill="#403c1b"/><path d="M2 4h1v1H2z" fill="#805e25"/><path d="M3 3h1v1H3z" fill="#928458"/><path d="M4 2h1v1H4zM5 3h1v1H5z" fill="#748458"/><path d="M2 2h1v1H2z" fill="#dfb67d"/><path d="M3 2h1v1H3zM2 1h1v1H2zM1 2h1v1H1zM2 3h1v1H2z" fill="#5f0d0d"/><path d="M1 3h1v1H1zM3 1h1v1H3z" fill="#2d0202"/><path d="M4 3h1v1H4zM5 4h1v1H5z" fill="#5f6d43"/><path d="M4 4h1v1H4z" fill="#ad8343"/></svg>