<?xml version="1.0" encoding="UTF-8" standalone="no"?>
<!-- Created with Inkscape (http://www.inkscape.org/) -->

<svg
   xmlns:dc="http://purl.org/dc/elements/1.1/"
   xmlns:cc="http://creativecommons.org/ns#"
   xmlns:rdf="http://www.w3.org/1999/02/22-rdf-syntax-ns#"
   xmlns:svg="http://www.w3.org/2000/svg"
   xmlns="http://www.w3.org/2000/svg"
   version="1.1"
   width="9"
   height="9"
   id="svg2">
  <defs
     id="defs4" />
  <metadata
     id="metadata7">
    <rdf:RDF>
      <cc:Work
         rdf:about="">
        <dc:format>image/svg+xml</dc:format>
        <dc:type
           rdf:resource="http://purl.org/dc/dcmitype/StillImage" />
        <dc:title></dc:title>
      </cc:Work>
    </rdf:RDF>
  </metadata>
  <g
     transform="translate(-595,-767.36218)"
     id="layer1">
    <path
       d="m 597,767.36218 2,0 0,1 1,0 0,-1 2,0 0,1 1,0 0,1 1,0 0,3 -1,0 0,1 -1,0 0,1 -1,0 0,1 -1,0 0,1 -1,0 0,-1 -1,0 0,-1 -1,0 0,-1 -1,0 0,-1 -1,0 0,-3 1,0 0,-1 1,0 z"
       id="path4139"
       style="fill:#000000;fill-opacity:1;stroke:none" />
  </g>
  <path
     d="M 5,1 7,1 7,2 8,2 8,5 7,5 7,6 6,6 6,7 4,7 4,2 5,2 z"
     id="path4055"
     style="fill:#282828;fill-opacity:1;stroke:none" />
  <path
     d="M 2,1 4,1 4,2 5,2 5,8 4,8 4,7 3,7 3,6 2,6 2,5 1,5 1,2 2,2 z"
     id="path3146"
     style="fill:#3b1313;fill-opacity:1;stroke:none" />
  <path
     d="M 2,2 2,5 3,5 3,6 4,6 4,7 5,7 5,6 5,3 4,3 4,2 z"
     id="path3148"
     style="fill:#2b2b2b;fill-opacity:1;stroke:none" />
  <path
     d="M 2,4 2,3 1,3 1,4 z"
     id="path3942"
     style="fill:#2f0f0f;fill-opacity:1;stroke:none" />
  <path
     d="M 3,3 3,2 2,2 2,3 z"
     id="path3942-7"
     style="fill:#cbcbcb;fill-opacity:1;stroke:none" />
  <path
     d="M 4,5 4,4 3,4 3,5 z"
     id="path3942-7-4"
     style="fill:#272727;fill-opacity:1;stroke:none" />
  <path
     d="M 5,6 5,7 4,7 4,6 3,6 3,5 2,5 2,4 3,4 3,5 4,5 4,6 z"
     id="path3994"
     style="fill:#202020;fill-opacity:1;stroke:none" />
  <path
     d="M 1,4 2,4 2,5 3,5 3,6 4,6 4,7 5,7 5,8 4,8 4,7 3,7 3,6 2,6 2,5 1,5 z"
     id="path3013"
     style="fill:#2a0e0e;fill-opacity:1;stroke:none" />
</svg>
